<svg width="551" height="650" viewBox="0 0 551 650" fill="none" xmlns="http://www.w3.org/2000/svg">
<path fill-rule="evenodd" clip-rule="evenodd" d="M275.302 0.00224471C281.306 0.066733 287.215 1.51987 292.567 4.25024L514.727 117.598C536.488 128.7 550.186 151.067 550.186 175.497V335.577C550.186 344.085 548.502 352.61 545.176 360.537C516.12 429.797 487.245 481.462 447.936 525.828C408.674 570.141 360.178 605.843 293.813 644.843C288.25 648.112 281.853 649.924 275.302 649.998V650C275.232 650 275.163 650 275.093 649.999C275.023 650 274.954 650 274.884 650V649.998C268.333 649.924 261.936 648.112 256.374 644.843C190.008 605.843 141.512 570.141 102.25 525.828C62.9416 481.462 34.0666 429.797 5.00987 360.537C1.68417 352.61 0 344.085 0 335.577V175.497C0 151.067 13.6981 128.7 35.4594 117.598L257.62 4.25024C262.971 1.51987 268.88 0.066733 274.884 0.00224471V0C274.954 0 275.023 0.000187278 275.093 0.000561659C275.163 0.000187278 275.232 0 275.302 0V0.00224471ZM275.093 51.4669L58.1829 162.136C53.1611 164.698 50 169.86 50 175.497V335.577C50 337.531 50.3948 339.474 51.1166 341.194C79.0539 407.785 105.385 453.969 139.674 492.67C172.819 530.078 214.497 561.738 275.093 597.824C335.689 561.738 377.368 530.078 410.512 492.67C444.802 453.969 471.132 407.785 499.07 341.194C499.791 339.474 500.186 337.531 500.186 335.577V175.497C500.186 169.86 497.025 164.698 492.003 162.136L275.093 51.4669Z" fill="black"/>
</svg>
